<svg width="260" height="180" viewBox="0 0 260 180" fill="none" xmlns="http://www.w3.org/2000/svg" role="img" aria-hidden="true">
  <rect x="22" y="26" width="216" height="128" rx="34" fill="#FFF8EF" stroke="#EBE4D9" stroke-width="3"/>
  <g stroke="#B7A491" stroke-width="3.4" stroke-linecap="round" fill="none" opacity="0.85">
    <path d="M66 52 q-6 7 0 14 q6 7 0 14"/>
    <path d="M82 50 q-6 7 0 14 q6 7 0 14"/>
  </g>
  <ellipse cx="78" cy="120" rx="30" ry="4.4" fill="#2A2622" opacity="0.09"/>
  <path d="M48 96 Q48 120 78 123 Q108 120 108 96 Z" fill="#C2674A"/>
  <path d="M58 110 Q78 122 98 110" stroke="#A5512F" stroke-width="4.5" stroke-linecap="round" fill="none" opacity="0.5"/>
  <ellipse cx="78" cy="96" rx="31" ry="7.6" fill="#FFF8EF" stroke="#C2674A" stroke-width="2"/>
  <ellipse cx="67" cy="94" rx="7.4" ry="4.2" fill="#7E8B6E" transform="rotate(-18 67 94)"/>
  <ellipse cx="89" cy="95" rx="7.4" ry="4.2" fill="#97A487" transform="rotate(20 89 95)"/>
  <circle cx="79" cy="93" r="3.6" fill="#C2674A"/>
  <rect x="146" y="74" width="64" height="13" rx="6.5" fill="#F6ECE5"/>
  <rect x="146" y="98" width="80" height="12" rx="6" fill="#EBEEE4"/>
  <rect x="146" y="121" width="52" height="12" rx="6" fill="#F7F2EA"/>
  <path d="M196 40L201 52L213 57L201 62L196 74L191 62L179 57L191 52Z" fill="#C2674A"/>
  <circle cx="216" cy="44" r="3.4" fill="#7E8B6E"/>
</svg>
