<svg width="260" height="180" viewBox="0 0 260 180" fill="none" xmlns="http://www.w3.org/2000/svg">
  <rect x="22" y="26" width="216" height="128" rx="34" fill="#FFF8EF" stroke="#EBE4D9" stroke-width="3"/>
  <circle cx="90" cy="88" r="34" fill="#FFFFFF" stroke="#A5512F" stroke-width="5"/>
  <path d="M69 60C72 43 88 39 99 50C111 40 129 47 130 64C115 70 88 72 69 60Z" fill="#EBEEE4" stroke="#7E8B6E" stroke-width="4"/>
  <path d="M74 101C85 111 99 111 110 101" stroke="#C2674A" stroke-width="5" stroke-linecap="round"/>
  <rect x="142" y="62" width="64" height="14" rx="7" fill="#F6ECE5"/>
  <rect x="142" y="90" width="82" height="12" rx="6" fill="#EBEEE4"/>
  <rect x="142" y="115" width="54" height="12" rx="6" fill="#F7F2EA"/>
  <path d="M197 37L207 48L220 42L214 56L226 66L210 65L203 79L199 63L183 60L197 52V37Z" fill="#C2674A"/>
</svg>
