<svg width="240" height="160" viewBox="0 0 240 160" fill="none" xmlns="http://www.w3.org/2000/svg" role="img" aria-hidden="true">
  <rect x="31" y="24" width="178" height="112" rx="32" fill="#FFF8EF" stroke="#EBE4D9" stroke-width="3"/>
  <g stroke="#B7A491" stroke-width="3.4" stroke-linecap="round" fill="none" opacity="0.8">
    <path d="M96 52 q-6 7 0 14 q6 7 0 14"/>
    <path d="M110 50 q-6 7 0 14 q6 7 0 14"/>
  </g>
  <ellipse cx="104" cy="116" rx="34" ry="4.6" fill="#2A2622" opacity="0.08"/>
  <path d="M70 92 Q70 117 104 120 Q138 117 138 92 Z" fill="#C2674A"/>
  <ellipse cx="104" cy="92" rx="35" ry="8.4" fill="#FFF8EF" stroke="#C2674A" stroke-width="2"/>
  <ellipse cx="92" cy="90" rx="8" ry="4.4" fill="#7E8B6E" transform="rotate(-18 92 90)"/>
  <ellipse cx="116" cy="91" rx="8" ry="4.4" fill="#97A487" transform="rotate(20 116 91)"/>
  <circle cx="104" cy="88" r="4" fill="#C2674A"/>
  <circle cx="165" cy="62" r="26" fill="#FFFFFF" stroke="#7E8B6E" stroke-width="6"/>
  <circle cx="165" cy="62" r="23" fill="#7E8B6E" opacity="0.08"/>
  <path d="M184 81L201 98" stroke="#7E8B6E" stroke-width="7" stroke-linecap="round"/>
</svg>
