<svg width="720" height="520" viewBox="0 0 720 520" fill="none" xmlns="http://www.w3.org/2000/svg" role="img" aria-labelledby="title desc">
  <title id="title">TastyFinder kitchen board</title>
  <desc id="desc">A warm illustrated kitchen board with recipe cards, herbs, vegetables, and cooking tools.</desc>
  <rect width="720" height="520" rx="44" fill="#FFF8EF"/>
  <rect x="32" y="32" width="656" height="456" rx="36" fill="#FDFBF7" stroke="#EBE4D9" stroke-width="3"/>
  <circle cx="620" cy="88" r="34" fill="#EBEEE4"/>
  <circle cx="112" cy="420" r="42" fill="#F6ECE5"/>
  <path d="M76 105C101 78 143 80 166 109C139 119 103 119 76 105Z" fill="#7E8B6E"/>
  <path d="M98 99C121 103 142 104 164 99" stroke="#2A2622" stroke-width="3" stroke-linecap="round" opacity=".28"/>
  <rect x="88" y="126" width="256" height="306" rx="28" fill="#FFFFFF" stroke="#EBE4D9" stroke-width="3"/>
  <rect x="112" y="152" width="104" height="26" rx="13" fill="#F6ECE5"/>
  <rect x="112" y="196" width="188" height="14" rx="7" fill="#EBEEE4"/>
  <rect x="112" y="224" width="150" height="14" rx="7" fill="#F7F2EA"/>
  <rect x="112" y="252" width="174" height="14" rx="7" fill="#F7F2EA"/>
  <rect x="112" y="306" width="78" height="30" rx="15" fill="#C2674A"/>
  <rect x="204" y="306" width="78" height="30" rx="15" fill="#EBEEE4"/>
  <g stroke="#B7A491" stroke-width="4" stroke-linecap="round" fill="none" opacity="0.8">
    <path d="M270 116 q-7 9 0 18 q7 9 0 18"/>
    <path d="M286 114 q-7 9 0 18 q7 9 0 18"/>
  </g>
  <ellipse cx="278" cy="190" rx="34" ry="5" fill="#2A2622" opacity="0.08"/>
  <path d="M244 162 Q244 190 278 193 Q312 190 312 162 Z" fill="#C2674A"/>
  <ellipse cx="278" cy="162" rx="36" ry="9" fill="#FFF8EF" stroke="#C2674A" stroke-width="2.4"/>
  <ellipse cx="265" cy="160" rx="9" ry="5" fill="#7E8B6E" transform="rotate(-18 265 160)"/>
  <ellipse cx="291" cy="161" rx="9" ry="5" fill="#97A487" transform="rotate(20 291 161)"/>
  <circle cx="279" cy="158" r="4.4" fill="#C2674A"/>
  <path d="M250 375C269 358 302 358 321 375" stroke="#7E8B6E" stroke-width="8" stroke-linecap="round"/>
  <path d="M264 392C281 381 303 381 320 392" stroke="#C2674A" stroke-width="6" stroke-linecap="round"/>
  <rect x="382" y="96" width="226" height="150" rx="28" fill="#EBEEE4" stroke="#DDE1D1" stroke-width="3"/>
  <path d="M416 159C441 133 483 132 510 160C482 174 443 174 416 159Z" fill="#7E8B6E"/>
  <circle cx="543" cy="166" r="28" fill="#C2674A"/>
  <path d="M536 148C548 138 563 141 572 153" stroke="#A5512F" stroke-width="4" stroke-linecap="round"/>
  <rect x="392" y="286" width="240" height="128" rx="26" fill="#FFFFFF" stroke="#EBE4D9" stroke-width="3"/>
  <rect x="420" y="314" width="88" height="18" rx="9" fill="#F6ECE5"/>
  <rect x="420" y="350" width="166" height="12" rx="6" fill="#EBEEE4"/>
  <rect x="420" y="376" width="132" height="12" rx="6" fill="#F7F2EA"/>
  <path d="M585 314L616 345" stroke="#7E8B6E" stroke-width="7" stroke-linecap="round"/>
  <path d="M616 314L585 345" stroke="#C2674A" stroke-width="5" stroke-linecap="round"/>
  <path d="M112 72C128 56 154 57 169 74" stroke="#C2674A" stroke-width="5" stroke-linecap="round"/>
  <path d="M535 440C551 424 577 425 592 442" stroke="#7E8B6E" stroke-width="5" stroke-linecap="round"/>
</svg>
