<svg width="96" height="96" viewBox="0 0 96 96" fill="none" xmlns="http://www.w3.org/2000/svg" role="img" aria-labelledby="title desc">
  <title id="title">TastyFinder icon mark</title>
  <desc id="desc">A warm steaming bowl of food with herbs.</desc>
  <rect x="4" y="4" width="88" height="88" rx="26" fill="#F6ECE5" stroke="#EBE4D9" stroke-width="2"/>
  <g stroke="#B7A491" stroke-width="3.4" stroke-linecap="round" fill="none" opacity="0.85">
    <path d="M41 22 q-6 7 0 14 q6 7 0 14"/>
    <path d="M55 20 q-6 7 0 14 q6 7 0 14"/>
  </g>
  <ellipse cx="48" cy="78" rx="27" ry="4" fill="#2A2622" opacity="0.08"/>
  <path d="M20 56 Q20 78 48 81 Q76 78 76 56 Z" fill="#C2674A"/>
  <path d="M30 69 Q48 80 66 69" stroke="#A5512F" stroke-width="4.5" stroke-linecap="round" fill="none" opacity="0.5"/>
  <ellipse cx="48" cy="56" rx="29" ry="7" fill="#FFF8EF" stroke="#C2674A" stroke-width="2"/>
  <ellipse cx="38" cy="54" rx="7" ry="4" fill="#7E8B6E" transform="rotate(-18 38 54)"/>
  <ellipse cx="58" cy="55" rx="7" ry="4" fill="#97A487" transform="rotate(20 58 55)"/>
  <circle cx="48" cy="53" r="3.6" fill="#C2674A"/>
  <circle cx="52" cy="58" r="3" fill="#D2795A"/>
</svg>
