<svg width="278" height="72" viewBox="0 0 278 72" fill="none" xmlns="http://www.w3.org/2000/svg" role="img" aria-labelledby="title desc">
  <title id="title">TastyFinder logo</title>
  <desc id="desc">TastyFinder wordmark with a warm steaming bowl icon.</desc>
  <rect x="2" y="6" width="60" height="60" rx="18" fill="#C2674A"/>
  <g stroke="rgba(255,235,215,0.72)" stroke-width="2.4" stroke-linecap="round" fill="none">
    <path d="M27 17 q-4 5 0 9 q4 5 0 9"/>
    <path d="M37 16 q-4 5 0 9 q4 5 0 9"/>
  </g>
  <path d="M16 41 Q16 56 32 58 Q48 56 48 41 Z" fill="rgba(255,235,215,0.22)"/>
  <ellipse cx="32" cy="41" rx="17" ry="4.5" fill="#FFF8EF" stroke="rgba(255,255,255,0.5)" stroke-width="1.2"/>
  <ellipse cx="26" cy="40" rx="4.4" ry="2.6" fill="#7E8B6E" transform="rotate(-18 26 40)"/>
  <ellipse cx="38" cy="40" rx="4.4" ry="2.6" fill="#97A487" transform="rotate(20 38 40)"/>
  <circle cx="32" cy="39" r="2.3" fill="#C2674A"/>
  <text x="78" y="33" fill="#2A2622" font-family="Playfair Display, Georgia, serif" font-size="28" font-weight="700" letter-spacing="-0.8">Tasty</text>
  <text x="151" y="33" fill="#C2674A" font-family="Playfair Display, Georgia, serif" font-size="28" font-weight="700" letter-spacing="-0.8">Finder</text>
  <text x="80" y="53" fill="#8B8378" font-family="Plus Jakarta Sans, Arial, sans-serif" font-size="11" font-weight="700" letter-spacing="1.4">COOK • PLAN • DISCOVER</text>
</svg>
