<svg width="278" height="72" viewBox="0 0 278 72" fill="none" xmlns="http://www.w3.org/2000/svg" role="img" aria-labelledby="title desc">
  <title id="title">TastyFinder logo</title>
  <desc id="desc">TastyFinder wordmark with a warm food icon.</desc>
  <rect x="2" y="6" width="60" height="60" rx="18" fill="#FDFBF7" stroke="#EBE4D9" stroke-width="2"/>
  <circle cx="29" cy="36" r="15" fill="#FFF8EF" stroke="#A5512F" stroke-width="3"/>
  <circle cx="29" cy="36" r="7" fill="#F6ECE5"/>
  <path d="M43 25C50 25 54 30 54 36C54 43 50 47 43 47C45 41 45 31 43 25Z" fill="#EBEEE4" stroke="#7E8B6E" stroke-width="2.4" stroke-linejoin="round"/>
  <path d="M18 52C26 49 35 49 44 52" stroke="#7E8B6E" stroke-width="3" stroke-linecap="round"/>
  <path d="M44 53L55 42" stroke="#7E8B6E" stroke-width="3.5" stroke-linecap="round"/>
  <path d="M50 47L58 55" stroke="#C2674A" stroke-width="3" stroke-linecap="round"/>
  <circle cx="18" cy="21" r="3.5" fill="#C2674A"/>
  <circle cx="46" cy="19" r="3" fill="#7E8B6E"/>
  <text x="78" y="33" fill="#2A2622" font-family="Playfair Display, Georgia, serif" font-size="28" font-weight="700" letter-spacing="-0.8">Tasty</text>
  <text x="151" y="33" fill="#C2674A" font-family="Playfair Display, Georgia, serif" font-size="28" font-weight="700" letter-spacing="-0.8">Finder</text>
  <text x="80" y="53" fill="#8B8378" font-family="Plus Jakarta Sans, Arial, sans-serif" font-size="11" font-weight="700" letter-spacing="1.4">COOK • PLAN • DISCOVER</text>
</svg>
