<svg xmlns="http://www.w3.org/2000/svg" width="1280" height="800" viewBox="0 0 1280 800">
  <rect width="1280" height="800" fill="#f7f4ef"/>
  <rect x="72" y="58" width="1136" height="684" rx="28" fill="#fffaf4" stroke="#e7d8c8" stroke-width="2"/>
  <rect x="72" y="58" width="1136" height="96" rx="28" fill="#2a2622"/>
  <circle cx="124" cy="106" r="14" fill="#c2674a"/>
  <circle cx="166" cy="106" r="14" fill="#d68a63"/>
  <circle cx="208" cy="106" r="14" fill="#e7d8c8"/>
  <text x="250" y="116" font-family="Arial, Helvetica, sans-serif" font-size="30" font-weight="700" fill="#f3ece1">TastyFinder</text>
  <text x="118" y="244" font-family="Arial, Helvetica, sans-serif" font-size="58" font-weight="800" fill="#2a2622">AI Chat</text>
  <text x="118" y="292" font-family="Arial, Helvetica, sans-serif" font-size="25" fill="#6f6256">Conversational recipe discovery with optional generation.</text>
  <rect x="118" y="348" width="420" height="250" rx="18" fill="#c2674a" opacity="0.92"/>
  <rect x="574" y="348" width="250" height="116" rx="16" fill="#efe3d6"/>
  <rect x="854" y="348" width="250" height="116" rx="16" fill="#efe3d6"/>
  <rect x="574" y="494" width="250" height="104" rx="16" fill="#fff" stroke="#e7d8c8"/>
  <rect x="854" y="494" width="250" height="104" rx="16" fill="#fff" stroke="#e7d8c8"/>
  <text x="152" y="422" font-family="Arial, Helvetica, sans-serif" font-size="34" font-weight="800" fill="#fff">Portfolio-ready flow</text>
  <text x="152" y="468" font-family="Arial, Helvetica, sans-serif" font-size="22" fill="#fff4ed">Recipe discovery, planning and shopping</text>
  <rect x="152" y="520" width="180" height="44" rx="22" fill="#fff" opacity="0.95"/>
  <text x="182" y="550" font-family="Arial, Helvetica, sans-serif" font-size="18" font-weight="700" fill="#c2674a">Open feature</text>
  <text x="610" y="414" font-family="Arial, Helvetica, sans-serif" font-size="22" font-weight="800" fill="#2a2622">Clean UI</text>
  <text x="890" y="414" font-family="Arial, Helvetica, sans-serif" font-size="22" font-weight="800" fill="#2a2622">Responsive</text>
  <text x="610" y="558" font-family="Arial, Helvetica, sans-serif" font-size="22" font-weight="800" fill="#2a2622">Firebase</text>
  <text x="890" y="558" font-family="Arial, Helvetica, sans-serif" font-size="22" font-weight="800" fill="#2a2622">AI optional</text>
</svg>