<svg width="64" height="64" viewBox="0 0 64 64" fill="none" xmlns="http://www.w3.org/2000/svg" role="img" aria-hidden="true">
  <ellipse cx="32" cy="55" rx="21" ry="3.4" fill="#2A2622" opacity="0.09"/>
  <ellipse cx="27" cy="20" rx="5" ry="3" fill="#7E8B6E" transform="rotate(-18 27 20)"/>
  <ellipse cx="38" cy="19" rx="5" ry="3" fill="#97A487" transform="rotate(18 38 19)"/>
  <circle cx="33" cy="21" r="3" fill="#D2795A"/>
  <path d="M16 26 Q32 16 48 26" stroke="#A5512F" stroke-width="3" fill="none" stroke-linecap="round"/>
  <path d="M14 28 L50 28 L45 52 Q44 56 40 56 L24 56 Q20 56 19 52 Z" fill="#C2674A"/>
  <g stroke="#A5512F" stroke-width="2" opacity="0.55">
    <line x1="25" y1="30" x2="27" y2="54"/>
    <line x1="32" y1="30" x2="32" y2="54"/>
    <line x1="39" y1="30" x2="37" y2="54"/>
  </g>
  <rect x="13" y="26" width="38" height="6" rx="3" fill="#A5512F"/>
</svg>
