<svg width="64" height="64" viewBox="0 0 64 64" fill="none" xmlns="http://www.w3.org/2000/svg" role="img" aria-hidden="true">
  <g stroke="#B7A491" stroke-width="2.6" stroke-linecap="round" fill="none" opacity="0.85">
    <path d="M27 10 q-5 6 0 11 q5 6 0 11"/>
    <path d="M38 8 q-5 6 0 11 q5 6 0 11"/>
  </g>
  <ellipse cx="32" cy="54" rx="20" ry="3.4" fill="#2A2622" opacity="0.09"/>
  <path d="M11 38 Q11 55 32 57 Q53 55 53 38 Z" fill="#C2674A"/>
  <path d="M19 48 Q32 56 45 48" stroke="#A5512F" stroke-width="3.4" stroke-linecap="round" fill="none" opacity="0.5"/>
  <ellipse cx="32" cy="38" rx="22" ry="5.4" fill="#FFF8EF" stroke="#C2674A" stroke-width="1.6"/>
  <ellipse cx="24" cy="36.5" rx="5.2" ry="3" fill="#7E8B6E" transform="rotate(-18 24 36.5)"/>
  <ellipse cx="40" cy="37" rx="5.2" ry="3" fill="#97A487" transform="rotate(20 40 37)"/>
  <circle cx="32" cy="35.5" r="2.7" fill="#C2674A"/>
</svg>
